<!-- <svg width="200" height="200" viewBox="0 0 200 200" fill="none" xmlns="http://www.w3.org/2000/svg">
<g clip-path="url(#clip0_2_9)">
<mask id="mask0_2_9" style="mask-type:luminance" maskUnits="userSpaceOnUse" x="0" y="0" width="200" height="200">
<path d="M200 0H0V200H200V0Z" fill="white"/>
</mask>
<g mask="url(#mask0_2_9)">
<path fill-rule="evenodd" clip-rule="evenodd" d="M101.604 0.859655C100.827 -0.435397 98.9501 -0.435396 98.1734 0.859656L79.3113 32.3082C78.7978 33.1643 77.7318 33.5106 76.8132 33.1199L43.0684 18.7644C41.6788 18.1732 40.1604 19.2764 40.2932 20.7806L43.5184 57.3099C43.6062 58.3043 42.9474 59.2111 41.9745 59.4349L6.23647 67.6557C4.76478 67.9943 4.18481 69.7792 5.17645 70.9182L29.2571 98.5752C29.9126 99.3281 29.9126 100.449 29.2571 101.202L5.17645 128.859C4.18481 129.998 4.76478 131.783 6.23648 132.121L41.9745 140.342C42.9474 140.566 43.6062 141.473 43.5184 142.467L40.2932 178.996C40.1604 180.501 41.6788 181.604 43.0684 181.013L76.8132 166.657C77.7318 166.266 78.7978 166.613 79.3113 167.469L98.1734 198.917C98.9501 200.213 100.827 200.212 101.604 198.917L120.466 167.469C120.979 166.613 122.045 166.266 122.964 166.657L156.709 181.013C158.098 181.604 159.617 180.501 159.484 178.996L156.259 142.467C156.171 141.473 156.83 140.566 157.803 140.342L193.541 132.121C195.012 131.783 195.592 129.998 194.601 128.859L170.52 101.202C169.865 100.449 169.865 99.3281 170.52 98.5752L194.601 70.9182C195.592 69.7792 195.012 67.9943 193.541 67.6557L157.803 59.4349C156.83 59.2111 156.171 58.3043 156.259 57.3099L159.484 20.7806C159.617 19.2764 158.098 18.1732 156.709 18.7644L122.964 33.1199C122.045 33.5106 120.979 33.1643 120.466 32.3082L101.604 0.859655ZM100 150C127.614 150 150 127.614 150 100C150 72.3857 127.614 50 100 50C72.3858 50 50 72.3857 50 100C50 127.614 72.3858 150 100 150Z" fill="#4ADE80"/>
</g>
</g>
<defs>
<clipPath id="clip0_2_9">
<rect width="200" height="200" fill="white"/>
</clipPath>
</defs>
</svg> -->
<svg width="200" height="200" viewBox="0 0 200 200" fill="none" xmlns="http://www.w3.org/2000/svg"> <g  clip-path="url(#clip0_231_648)"> <path  fill-rule="evenodd" clip-rule="evenodd" d="M100 33.6449C92.7738 33.6449 86.9159 39.5028 86.9159 46.729H53.271C53.271 20.9213 74.1923 0 100 0C125.808 0 146.729 20.9213 146.729 46.729C146.729 72.5367 125.808 93.4579 100 93.4579V59.8131C107.226 59.8131 113.084 53.9551 113.084 46.729C113.084 39.5028 107.226 33.6449 100 33.6449ZM166.355 100C166.355 92.7738 160.497 86.9159 153.271 86.9159L153.271 53.271C179.079 53.271 200 74.1923 200 100C200 125.808 179.079 146.729 153.271 146.729C127.463 146.729 106.542 125.808 106.542 100H140.187C140.187 107.226 146.045 113.084 153.271 113.084C160.497 113.084 166.355 107.226 166.355 100ZM46.729 113.084C39.5028 113.084 33.6449 107.226 33.6449 100C33.6449 92.7738 39.5028 86.9159 46.729 86.9159C53.9551 86.9159 59.8131 92.7738 59.8131 100H93.4579C93.4579 74.1923 72.5367 53.271 46.729 53.271C20.9213 53.271 0 74.1923 0 100C0 125.808 20.9213 146.729 46.729 146.729V113.084ZM100 166.355C107.226 166.355 113.084 160.497 113.084 153.271H146.729C146.729 179.079 125.808 200 100 200C74.1923 200 53.271 179.079 53.271 153.271C53.271 127.463 74.1923 106.542 100 106.542L100 140.187C92.7738 140.187 86.9159 146.045 86.9159 153.271C86.9159 160.497 92.7738 166.355 100 166.355Z" fill="url(#paint0_linear_231_648)"/> </g> <defs> <linearGradient id="paint0_linear_231_648" x1="100" y1="0" x2="100" y2="200" gradientUnits="userSpaceOnUse"> <stop stop-color="#4ade80"/> <stop offset="1" stop-color="#F8FBFE"/> </linearGradient> <clipPath id="clip0_231_648"> <rect width="200" height="200" fill="white"/> </clipPath> </defs> </svg>